<?xml version="1.0" standalone="no"?>
<!DOCTYPE svg PUBLIC "-//W3C//DTD SVG 20010904//EN"
 "http://www.w3.org/TR/2001/REC-SVG-20010904/DTD/svg10.dtd">
<svg version="1.0" xmlns="http://www.w3.org/2000/svg"
 width="1500.000000pt" height="1500.000000pt" viewBox="0 0 1500.000000 1500.000000"
 preserveAspectRatio="xMidYMid meet">
<metadata>
Created by potrace 1.11, written by Peter Selinger 2001-2013
</metadata>
<g transform="translate(0.000000,1500.000000) scale(0.100000,-0.100000)"
fill="#000000" stroke="none">
<path d="M4756 12483 c-93 -28 -162 -91 -173 -157 -9 -56 20 -100 106 -160 42
-29 100 -79 128 -110 64 -69 121 -182 130 -254 l6 -52 38 57 c21 32 70 96 110
143 123 146 148 234 95 338 -35 69 -113 144 -183 178 -70 33 -180 41 -257 17z"/>
<path d="M4302 11740 c-163 -34 -308 -136 -387 -272 -89 -151 -86 -300 7 -372
55 -42 86 -47 263 -51 188 -3 283 -19 397 -65 101 -41 173 -87 243 -155 l63
-60 -1 135 c0 74 3 212 8 305 8 181 2 239 -34 319 -42 91 -147 164 -286 201
-74 19 -216 27 -273 15z"/>
<path d="M5434 11734 c-140 -29 -249 -93 -301 -173 -55 -86 -63 -128 -57 -316
3 -93 6 -240 7 -325 l1 -155 59 58 c99 96 242 169 412 208 28 6 129 13 226 14
191 3 228 12 283 63 40 38 58 87 57 154 -2 186 -174 394 -380 459 -80 26 -220
32 -307 13z"/>
<path d="M4877 10414 c-1 -1 -58 -4 -127 -8 -69 -4 -138 -8 -155 -11 -16 -2
-68 -9 -115 -15 -576 -72 -1163 -296 -1664 -635 -48 -33 -93 -64 -100 -70 -6
-5 -38 -30 -71 -55 -166 -124 -424 -366 -559 -525 -38 -44 -78 -91 -90 -105
-12 -14 -53 -68 -92 -120 -250 -335 -428 -674 -561 -1065 -54 -160 -126 -436
-139 -530 -3 -27 -8 -53 -10 -56 -1 -3 -6 -28 -9 -55 -4 -27 -11 -77 -16 -110
-30 -203 -33 -794 -4 -999 2 -16 6 -52 9 -80 31 -282 134 -741 205 -910 5 -11
31 -76 57 -144 259 -671 746 -1271 1348 -1665 106 -70 293 -168 431 -226 55
-23 114 -48 130 -55 196 -86 754 -273 892 -300 10 -1 38 -8 63 -15 25 -7 52
-14 60 -15 8 -2 56 -12 105 -24 50 -11 104 -22 120 -25 17 -3 41 -8 55 -11 42
-9 252 -43 310 -51 30 -4 62 -8 70 -9 116 -16 250 -20 725 -20 308 0 585 3
615 7 30 4 80 10 110 13 51 6 393 63 415 69 6 2 28 6 50 10 82 16 403 98 500
127 547 167 1067 401 1575 706 134 81 452 289 510 333 19 15 89 67 155 115
155 114 394 305 525 421 251 222 479 440 701 674 19 20 90 99 159 175 69 77
128 142 131 145 23 21 198 238 272 336 l90 122 21 -20 c71 -67 222 -142 324
-161 67 -13 196 -15 262 -4 236 39 533 203 815 450 126 111 366 356 472 482
22 28 66 79 95 115 53 62 212 272 291 382 l38 53 -33 28 c-63 55 -238 165
-340 215 -108 53 -281 114 -358 127 -25 4 -54 9 -65 11 -118 23 -325 22 -445
-1 -100 -19 -146 -31 -224 -58 -105 -36 -226 -93 -305 -145 -31 -20 -63 -41
-71 -46 -8 -6 3 12 26 40 48 57 107 146 152 225 32 57 94 199 87 199 -2 0 2
15 10 33 29 70 48 234 42 370 -8 221 -55 389 -171 617 -26 52 -54 102 -62 111
-8 8 -14 19 -14 24 0 11 -130 190 -174 240 l-36 40 -167 -171 c-146 -148 -423
-436 -525 -545 -18 -20 -87 -94 -154 -165 -67 -71 -132 -141 -145 -155 -13
-15 -62 -68 -109 -119 -134 -147 -358 -410 -394 -465 -113 -169 -74 -406 116
-697 45 -68 175 -238 198 -258 3 -3 30 -31 59 -62 l53 -57 -57 -26 c-121 -53
-292 -106 -418 -129 -130 -23 -310 -24 -429 -2 -116 22 -117 22 -178 44 -222
78 -394 203 -600 437 -109 124 -286 436 -375 659 -29 75 -75 220 -90 290 -11
48 -96 288 -126 353 -10 24 -19 45 -19 48 0 21 -155 332 -223 445 -337 568
-801 1035 -1357 1364 -101 61 -400 216 -415 216 -3 0 -24 8 -48 19 -149 66
-356 136 -547 184 -122 32 -164 41 -240 53 -14 2 -34 6 -46 9 -12 3 -39 7 -60
10 -21 3 -48 7 -59 10 -11 2 -49 7 -85 10 -36 4 -76 8 -90 11 -56 9 -475 24
-483 18z"/>
</g>
</svg>
